<?xml version="1.0" encoding="utf-8"?>
<!-- Generator: Adobe Illustrator 26.3.1, SVG Export Plug-In . SVG Version: 6.00 Build 0)  -->
<svg version="1.1" id="Layer_1" xmlns="http://www.w3.org/2000/svg" xmlns:xlink="http://www.w3.org/1999/xlink" x="0px" y="0px"
	 viewBox="0 0 1920 1080" style="enable-background:new 0 0 1920 1080;" xml:space="preserve">
<style type="text/css">
	.st0{fill:#72737B;}
	.st1{fill:#F36163;}
</style>
<g>
	<path class="st0" d="M916.46,686.39c16.76,0,27.39-14.23,27.39-16.9c0,0-7.57-0.2-7.57-15.15c0-54.59,59.25-187.86,59.25-192.33
		c0-4.47-15.93-20.79-20.98-20.79c-24.77,0-74.55,71.11-74.55,81.97c0-1.68,33.03-79.26,33.03-79.26c0-1.83-17.72-17.18-21.22-17.18
		c-3.5,0-62.94,153.57-62.94,166.97c0,6.8,18.65,21.18,24.09,21.18c1.12,0,16.9-54.94,16.9-54.94
		c10.15-36.77,60.35-105.8,81.48-105.8c0,0-74.48,140.14-74.48,204.64C896.85,671.67,904.52,686.39,916.46,686.39z"/>
	<circle class="st1" cx="988.71" cy="622.12" r="17.47"/>
</g>
</svg>
