<?xml version="1.0" encoding="utf-8"?>
<!-- Generator: Adobe Illustrator 26.3.1, SVG Export Plug-In . SVG Version: 6.00 Build 0)  -->
<svg version="1.1" id="Layer_1" xmlns="http://www.w3.org/2000/svg" xmlns:xlink="http://www.w3.org/1999/xlink" x="0px" y="0px"
	 viewBox="0 0 74 121" style="enable-background:new 0 0 74 121;" xml:space="preserve">
<style type="text/css">
	.st0{fill:#72737B;}
	.st1{fill:#F36163;}
</style>
<g>
	<path class="st0" d="M31.46,120c7.67,0,12.54-6.51,12.54-7.74c0,0-3.47-0.09-3.47-6.94c0-24.99,27.13-86,27.13-88.05
		c0-2.05-7.29-9.52-9.61-9.52c-11.34,0-34.13,32.55-34.13,37.52C23.92,44.52,39.04,9,39.04,9c0-0.84-8.11-7.86-9.72-7.86
		c-1.6,0-28.82,70.31-28.82,76.44c0,3.11,8.54,9.69,11.03,9.69c0.51,0,7.74-25.15,7.74-25.15c4.65-16.83,27.63-48.44,37.3-48.44
		c0,0-34.1,64.16-34.1,93.69C22.48,113.26,25.99,120,31.46,120z"/>
	<circle class="st1" cx="64.53" cy="90.58" r="8"/>
</g>
</svg>
