<?xml version="1.0" encoding="utf-8"?>
<!-- Generator: Adobe Illustrator 26.3.1, SVG Export Plug-In . SVG Version: 6.00 Build 0)  -->
<svg version="1.1" id="Layer_1" xmlns="http://www.w3.org/2000/svg" xmlns:xlink="http://www.w3.org/1999/xlink" x="0px" y="0px"
	 viewBox="0 0 12.29 20.09" style="enable-background:new 0 0 12.29 20.09;" xml:space="preserve">
<style type="text/css">
	.st0{fill:#72737B;}
	.st1{fill:#F36163;}
</style>
<g>
	<path class="st0" d="M5.02,18.45c1.12,0,1.83-0.95,1.83-1.13c0,0-0.51-0.01-0.51-1.01c0-3.64,3.95-12.53,3.95-12.83
		c0-0.3-1.06-1.39-1.4-1.39c-1.65,0-4.97,4.74-4.97,5.47c0-0.11,2.2-5.29,2.2-5.29c0-0.12-1.18-1.15-1.42-1.15
		c-0.23,0-4.2,10.24-4.2,11.14c0,0.45,1.24,1.41,1.61,1.41c0.07,0,1.13-3.66,1.13-3.66c0.68-2.45,4.02-7.06,5.43-7.06
		c0,0-4.97,9.35-4.97,13.65C3.71,17.47,4.22,18.45,5.02,18.45z"/>
	<circle class="st1" cx="9.84" cy="14.17" r="1.16"/>
</g>
</svg>
